<?xml version="1.0" standalone="no"?>
<!DOCTYPE svg PUBLIC "-//W3C//DTD SVG 20010904//EN"
 "http://www.w3.org/TR/2001/REC-SVG-20010904/DTD/svg10.dtd">
<svg version="1.0" xmlns="http://www.w3.org/2000/svg"
 width="50.000000pt" height="50.000000pt" viewBox="0 0 50.000000 50.000000"
 preserveAspectRatio="xMidYMid meet">

<g transform="translate(0.000000,50.000000) scale(0.100000,-0.100000)"
fill="#000000" stroke="none">
<path d="M160 485 c-89 -28 -160 -114 -160 -195 0 -19 9 -53 19 -76 15 -34 17
-48 8 -90 -13 -63 -4 -97 28 -112 46 -21 73 -14 117 28 58 55 98 55 156 0 44
-42 71 -49 117 -28 32 15 41 49 28 112 -9 42 -7 56 8 90 77 170 -117 334 -321
271z m80 -70 c0 -53 -1 -55 -27 -55 -58 0 -65 29 -22 84 34 43 49 34 49 -29z
m69 29 c43 -55 36 -84 -21 -84 -27 0 -28 2 -28 55 0 63 15 72 49 29z m-158
-19 c-17 -37 -32 -43 -51 -20 -10 12 -6 18 22 35 45 27 48 26 29 -15z m230 14
c24 -17 27 -24 18 -35 -18 -22 -33 -16 -50 21 -19 40 -10 44 32 14z m-278 -63
c10 -8 17 -26 17 -45 0 -30 -1 -31 -45 -31 -51 0 -56 10 -30 60 17 33 31 36
58 16z m352 -16 c26 -50 21 -60 -30 -60 -44 0 -45 1 -45 31 0 31 22 58 47 59
7 0 19 -13 28 -30z m-242 -24 c46 -11 34 -36 -18 -36 -42 0 -45 2 -45 26 0 19
4 24 18 21 9 -3 29 -8 45 -11z m137 -11 c0 -23 -4 -25 -45 -25 -52 0 -64 25
-17 36 15 3 32 7 37 9 21 7 25 4 25 -20z m-230 -65 c0 -13 -7 -20 -19 -20 -10
0 -24 -7 -32 -16 -12 -14 -14 -14 -26 2 -7 10 -13 26 -13 36 0 15 8 18 45 18
38 0 45 -3 45 -20z m115 -5 c0 -22 -24 -30 -61 -21 -15 4 -24 14 -24 27 0 18
5 20 43 17 34 -2 42 -7 42 -23z m115 6 c0 -29 -70 -45 -85 -21 -14 23 5 40 45
40 33 0 40 -3 40 -19z m116 -13 c-8 -41 -12 -44 -34 -25 -10 10 -26 17 -35 17
-10 0 -17 8 -17 20 0 17 7 20 46 20 l47 0 -7 -32z m-47 -43 c19 -20 42 -134
31 -155 -22 -41 -91 -34 -105 10 -3 11 -13 20 -21 20 -8 0 -14 5 -14 10 0 6
-27 10 -60 10 -33 0 -60 -4 -60 -10 0 -5 -6 -10 -14 -10 -8 0 -18 -9 -21 -20
-14 -44 -83 -51 -105 -10 -8 15 -6 36 6 82 9 35 20 68 24 73 11 13 327 12 339
0z"/>
<path d="M110 170 c0 -5 5 -10 10 -10 6 0 10 5 10 10 0 6 -4 10 -10 10 -5 0
-10 -4 -10 -10z"/>
<path d="M375 170 c-3 -5 -1 -10 4 -10 6 0 11 5 11 10 0 6 -2 10 -4 10 -3 0
-8 -4 -11 -10z"/>
<path d="M160 140 c0 -5 5 -10 10 -10 6 0 10 5 10 10 0 6 -4 10 -10 10 -5 0
-10 -4 -10 -10z"/>
<path d="M320 140 c0 -5 5 -10 10 -10 6 0 10 5 10 10 0 6 -4 10 -10 10 -5 0
-10 -4 -10 -10z"/>
</g>
</svg>
