<?xml version="1.0" standalone="no"?>
<!DOCTYPE svg PUBLIC "-//W3C//DTD SVG 20010904//EN"
 "http://www.w3.org/TR/2001/REC-SVG-20010904/DTD/svg10.dtd">
<svg version="1.0" xmlns="http://www.w3.org/2000/svg"
 width="50.000000pt" height="50.000000pt" viewBox="0 0 50.000000 50.000000"
 preserveAspectRatio="xMidYMid meet">

<g transform="translate(0.000000,50.000000) scale(0.100000,-0.100000)"
fill="#000000" stroke="none">
<path d="M66 478 c-21 -30 -20 -44 4 -68 13 -13 15 -20 7 -20 -18 0 -59 -39
-52 -50 3 -5 15 0 25 10 27 27 83 26 108 0 l19 -20 18 20 c25 27 85 27 110 0
l18 -20 22 20 c27 26 79 26 105 0 10 -10 22 -15 25 -10 8 13 -31 50 -52 50
-14 0 -13 3 5 20 26 25 27 38 6 68 -21 30 -59 29 -80 -4 -16 -24 -16 -26 3
-53 l21 -27 -29 -13 c-23 -10 -33 -10 -54 2 -24 12 -25 15 -11 26 33 28 9 91
-34 91 -43 0 -67 -63 -34 -91 14 -11 13 -14 -11 -26 -21 -12 -31 -12 -54 -2
l-29 13 21 27 c19 27 19 29 3 53 -21 33 -59 34 -80 4z m63 -16 c12 -22 -3 -42
-30 -42 -22 0 -33 28 -18 46 16 19 36 17 48 -4z m146 -12 c0 -20 -5 -25 -25
-25 -28 0 -41 32 -18 46 23 15 43 5 43 -21z m144 16 c15 -18 4 -46 -18 -46
-27 0 -42 20 -30 42 12 21 32 23 48 4z"/>
<path d="M29 281 c-29 -29 -29 -31 -29 -139 0 -95 2 -111 20 -127 28 -25 63
-13 107 40 l37 45 87 0 87 0 36 -45 c44 -53 78 -65 106 -40 18 16 20 32 20
127 0 108 0 110 -29 139 l-29 29 -192 0 -192 0 -29 -29z m431 -18 c18 -24 20
-38 18 -126 -3 -84 -6 -102 -21 -111 -15 -9 -24 -5 -51 25 -18 19 -38 44 -44
54 -9 17 -23 19 -112 20 -90 0 -103 -2 -112 -19 -6 -11 -26 -36 -44 -55 -27
-30 -36 -34 -51 -25 -15 9 -18 27 -21 111 -2 88 0 102 18 126 l21 27 189 0
189 0 21 -27z"/>
<path d="M375 250 c-4 -6 -3 -16 3 -22 6 -6 12 -6 17 2 4 6 3 16 -3 22 -6 6
-12 6 -17 -2z"/>
<path d="M103 232 c-2 -11 -15 -23 -26 -27 l-22 -8 23 -4 c14 -3 22 -12 22
-24 0 -25 20 -25 27 0 3 11 15 22 27 24 l21 4 -22 8 c-13 4 -23 13 -23 21 0
22 -21 27 -27 6z"/>
<path d="M332 199 c2 -6 8 -10 13 -10 5 0 11 4 13 10 2 6 -4 11 -13 11 -9 0
-15 -5 -13 -11z"/>
<path d="M412 199 c2 -6 8 -10 13 -10 5 0 11 4 13 10 2 6 -4 11 -13 11 -9 0
-15 -5 -13 -11z"/>
<path d="M372 158 c6 -18 28 -21 28 -4 0 9 -7 16 -16 16 -9 0 -14 -5 -12 -12z"/>
</g>
</svg>
