<?xml version="1.0" standalone="no"?>
<!DOCTYPE svg PUBLIC "-//W3C//DTD SVG 20010904//EN"
 "http://www.w3.org/TR/2001/REC-SVG-20010904/DTD/svg10.dtd">
<svg version="1.0" xmlns="http://www.w3.org/2000/svg"
 width="50.000000pt" height="50.000000pt" viewBox="0 0 50.000000 50.000000"
 preserveAspectRatio="xMidYMid meet">

<g transform="translate(0.000000,50.000000) scale(0.100000,-0.100000)"
fill="#000000" stroke="none">
<path d="M166 485 c-58 -22 -102 -60 -133 -113 -24 -40 -28 -58 -28 -123 0
-67 4 -81 30 -125 76 -122 230 -159 349 -84 155 98 151 326 -6 423 -58 36
-151 45 -212 22z m172 -54 c102 -52 142 -174 90 -274 l-22 -42 -8 42 c-7 30
-19 51 -44 72 -22 17 -32 31 -25 35 16 10 13 78 -4 102 -52 76 -165 37 -165
-56 0 -20 5 -41 11 -47 8 -8 5 -14 -10 -22 -27 -15 -52 -53 -61 -94 l-6 -32
-22 42 c-40 78 -23 183 40 239 61 56 156 71 226 35z m-53 -95 c23 -34 5 -66
-36 -66 -41 0 -61 40 -34 70 24 27 51 25 70 -4z m43 -146 c17 -16 22 -32 22
-71 0 -44 -3 -51 -26 -59 -35 -14 -118 -13 -149 2 -22 10 -25 18 -25 58 0 68
24 90 99 90 44 0 62 -5 79 -20z"/>
</g>
</svg>
