<?xml version="1.0" standalone="no"?>
<!DOCTYPE svg PUBLIC "-//W3C//DTD SVG 20010904//EN"
 "http://www.w3.org/TR/2001/REC-SVG-20010904/DTD/svg10.dtd">
<svg version="1.0" xmlns="http://www.w3.org/2000/svg"
 width="50.000000pt" height="50.000000pt" viewBox="0 0 50.000000 50.000000"
 preserveAspectRatio="xMidYMid meet">

<g transform="translate(0.000000,50.000000) scale(0.100000,-0.100000)"
fill="#000000" stroke="none">
<path d="M125 490 c-61 -25 -91 -108 -61 -172 55 -115 216 -73 216 57 0 89
-79 147 -155 115z m95 -48 c13 -10 23 -33 27 -59 5 -35 2 -45 -20 -67 -46 -46
-117 -32 -136 27 -28 83 63 152 129 99z"/>
<path d="M400 326 c0 -32 -3 -35 -32 -38 -22 -2 -34 -9 -36 -20 -3 -15 4 -18
32 -18 34 0 36 -2 36 -35 0 -24 5 -35 15 -35 10 0 15 11 15 35 0 33 2 35 35
35 28 0 35 4 35 20 0 16 -7 20 -35 20 -33 0 -35 2 -35 35 0 24 -5 35 -15 35
-10 0 -15 -10 -15 -34z"/>
<path d="M52 194 c-35 -24 -52 -68 -52 -134 0 -47 3 -60 15 -60 11 0 15 12 15
50 0 56 20 104 49 120 11 5 52 10 91 10 66 0 74 -2 101 -29 26 -26 29 -36 29
-90 0 -48 3 -61 15 -61 12 0 15 15 15 71 0 67 -2 73 -34 105 -34 34 -34 34
-128 34 -69 0 -99 -4 -116 -16z"/>
</g>
</svg>
