<?xml version="1.0" standalone="no"?>
<!DOCTYPE svg PUBLIC "-//W3C//DTD SVG 20010904//EN"
 "http://www.w3.org/TR/2001/REC-SVG-20010904/DTD/svg10.dtd">
<svg version="1.0" xmlns="http://www.w3.org/2000/svg"
 width="50.000000pt" height="50.000000pt" viewBox="0 0 50.000000 50.000000"
 preserveAspectRatio="xMidYMid meet">

<g transform="translate(0.000000,50.000000) scale(0.100000,-0.100000)"
fill="#000000" stroke="none">
<path d="M25 475 c-25 -24 -25 -25 -25 -225 0 -270 -20 -250 250 -250 270 0
250 -20 250 250 0 270 20 250 -250 250 -200 0 -201 0 -225 -25z m439 -11 c24
-23 24 -405 0 -428 -23 -24 -405 -24 -428 0 -24 23 -24 405 0 428 23 24 405
24 428 0z"/>
<path d="M47 452 c-15 -16 -17 -45 -17 -204 0 -166 2 -187 18 -201 16 -15 45
-17 204 -17 166 0 187 2 201 18 15 16 17 45 17 204 0 166 -2 187 -18 201 -16
15 -45 17 -204 17 -166 0 -187 -2 -201 -18z m398 -202 l0 -195 -195 0 -195 0
-3 185 c-1 101 0 190 3 197 3 11 46 13 197 11 l193 -3 0 -195z"/>
<path d="M105 395 c-28 -27 -30 -37 -14 -66 8 -16 7 -25 -6 -39 -11 -12 -15
-32 -13 -61 3 -39 6 -44 30 -47 21 -3 27 -9 30 -30 l3 -27 88 0 c84 0 87 0 87
-23 0 -44 61 -39 68 6 2 12 12 22 25 24 17 2 23 11 25 36 3 29 1 32 -22 32
-19 0 -26 5 -26 19 0 11 -16 36 -36 56 -26 27 -33 40 -25 48 21 21 13 65 -15
84 -24 15 -29 15 -53 2 -14 -8 -27 -25 -29 -37 -4 -25 -22 -31 -22 -7 0 20
-36 55 -55 55 -9 0 -27 -11 -40 -25z m65 -10 c15 -18 10 -45 -12 -59 -35 -22
-74 27 -48 59 16 19 44 19 60 0z m134 -1 c19 -18 19 -20 6 -45 -6 -10 -18 -19
-27 -19 -17 0 -53 28 -53 41 0 13 30 39 45 39 7 0 21 -7 29 -16z m-64 -69 c15
-18 10 -45 -12 -59 -33 -20 -69 20 -54 60 7 18 50 18 66 -1z m-84 -42 c14 -39
-8 -73 -48 -73 -30 0 -30 1 -25 37 10 61 56 83 73 36z m158 8 c11 -12 14 -21
7 -26 -6 -3 -11 -17 -11 -31 0 -29 -20 -31 -45 -4 -15 17 -16 24 -5 50 14 35
30 38 54 11z m48 -68 c2 -22 9 -29 31 -31 38 -5 36 -32 -3 -32 -27 0 -30 -3
-30 -31 0 -24 -4 -30 -17 -27 -11 2 -19 14 -21 31 -3 21 -9 27 -28 27 -31 0
-32 27 -1 32 16 2 23 11 25 31 2 19 9 27 22 27 13 0 20 -8 22 -27z m-115 5 c4
-7 8 -30 8 -50 l0 -38 -52 0 c-53 0 -53 0 -53 32 0 17 7 40 17 50 18 21 68 24
80 6z"/>
</g>
</svg>
